<?xml version="1.0" standalone="no"?><!DOCTYPE svg PUBLIC "-//W3C//DTD SVG 1.1//EN" "http://www.w3.org/Graphics/SVG/1.1/DTD/svg11.dtd"><svg class="icon" width="16px" height="16.00px" viewBox="0 0 1024 1024" version="1.1" xmlns="http://www.w3.org/2000/svg"><path d="M938.667 789.333c8.533-17.066 17.066-29.866 25.6-46.933 4.266-4.267 4.266-8.533 4.266-12.8 4.267-12.8 12.8-25.6 17.067-38.4 4.267-4.267 4.267-8.533 4.267-17.067 4.266-12.8 8.533-25.6 12.8-34.133 0-4.267 4.266-12.8 4.266-17.067 4.267-12.8 4.267-25.6 8.534-38.4 0-4.266 4.266-12.8 4.266-17.066C1024 550.4 1024 529.067 1024 512 1024 230.4 793.6 0 512 0S0 230.4 0 512c0 17.067 0 38.4 4.267 55.467 0 4.266 0 12.8 4.266 17.066 0 12.8 4.267 25.6 4.267 38.4 0 4.267 4.267 12.8 4.267 17.067 4.266 12.8 8.533 25.6 12.8 34.133 0 4.267 4.266 8.534 4.266 17.067C38.4 704 42.667 716.8 51.2 729.6c0 4.267 4.267 8.533 4.267 12.8 8.533 17.067 17.066 29.867 25.6 46.933C170.667 930.133 328.533 1024 507.733 1024S844.8 930.133 938.667 789.333c-4.267 0-4.267 0 0 0zM507.733 243.2c102.4 0 187.734 85.333 187.734 187.733s-85.334 187.734-187.734 187.734S320 533.333 320 430.933 405.333 243.2 507.733 243.2zM196.267 832C251.733 708.267 371.2 627.2 507.733 627.2s256 81.067 311.467 204.8c-81.067 76.8-192 128-311.467 128-119.466-4.267-230.4-51.2-311.466-128z" fill="#b81c22" /></svg>